<svg width="50" height="50" viewBox="0 0 50 50" fill="none" xmlns="http://www.w3.org/2000/svg">
<path d="M20.7 16.13H19.73C16.83 16.13 14.48 18.44 14.39 21.31C14.25 21.48 14.15 21.7 14.15 21.94V31.86C14.15 33.21 16.19 33.9 20.22 33.9C24.25 33.9 26.29 33.21 26.29 31.86V21.94C26.29 21.7 26.19 21.49 26.05 21.31C25.95 18.45 23.59 16.13 20.7 16.13ZM24.28 31.43C23.71 31.63 22.29 31.89 20.21 31.89C18.13 31.89 16.71 31.63 16.14 31.43V25.06C17.25 25.59 18.73 25.86 20.21 25.86C21.69 25.86 23.18 25.59 24.28 25.06V31.43ZM19.72 18.13H20.69C22.17 18.13 23.41 19.09 23.86 20.42C21.77 19.62 18.64 19.62 16.55 20.42C17 19.1 18.25 18.13 19.72 18.13ZM24.05 22.82C24.03 22.86 23.99 22.9 23.94 22.94C23.55 23.29 22.27 23.86 20.21 23.86C18.06 23.86 16.77 23.24 16.44 22.94C16.4 22.9 16.37 22.87 16.36 22.84C16.44 22.63 17.14 22.18 18.4 21.94C18.92 21.84 19.52 21.77 20.22 21.77C20.92 21.77 21.52 21.84 22.03 21.94C23.22 22.18 23.93 22.6 24.05 22.82Z" fill="white"/>
<path d="M46.37 25.79L42.22 21.64C41.44 20.86 40.17 20.86 39.39 21.64L26.7 34.33C25.6 35.43 24.85 36.82 24.55 38.35L23.86 41.8C23.73 42.46 23.93 43.13 24.41 43.61C24.79 43.99 25.3 44.2 25.82 44.2C25.95 44.2 26.08 44.19 26.21 44.16L29.66 43.47C31.19 43.16 32.58 42.42 33.68 41.32L46.37 28.63C46.75 28.25 46.96 27.75 46.96 27.22C46.96 26.69 46.74 26.17 46.37 25.79ZM30.85 38.48C30.31 39.02 29.62 39.39 28.87 39.54L28.37 39.64L28.47 39.14C28.62 38.39 28.99 37.7 29.53 37.16L40.8 25.88L42.12 27.2L30.85 38.48Z" fill="white"/>
<path d="M19.83 40.19H13.24C12.72 40.19 12.3 39.77 12.3 39.25V10.48C12.3 9.96 12.72 9.54 13.24 9.54H25.92V13.41C25.92 16.13 28.13 18.35 30.86 18.35H34.73V18.82C34.73 19.92 35.63 20.82 36.73 20.82C37.83 20.82 38.73 19.92 38.73 18.82V16.35C38.73 16.22 38.72 16.1 38.69 15.98C38.69 15.97 38.69 15.97 38.69 15.96C38.66 15.79 38.59 15.63 38.52 15.47C38.5 15.43 38.48 15.4 38.46 15.36C38.37 15.21 38.27 15.06 38.15 14.94L29.34 6.13C29.21 6 29.07 5.9 28.91 5.82C28.88 5.8 28.84 5.78 28.81 5.76C28.65 5.68 28.49 5.62 28.32 5.59C28.31 5.59 28.3 5.59 28.3 5.59C28.18 5.57 28.06 5.55 27.93 5.55H13.25C10.53 5.55 8.31 7.76 8.31 10.49V39.26C8.31 41.98 10.52 44.2 13.25 44.2H19.84C20.94 44.2 21.84 43.3 21.84 42.2C21.84 41.1 20.94 40.19 19.83 40.19ZM30.86 14.35C30.34 14.35 29.92 13.93 29.92 13.41V12.37L31.9 14.35H30.86V14.35Z" fill="white"/>
<path d="M30.57 26.13V25.49C31.44 25.34 32.03 24.72 32.03 23.92C32.03 22.58 30.73 22.42 29.96 22.32C29.45 22.26 29.18 22.2 29.18 22.03C29.18 21.73 29.69 21.7 29.91 21.7C30.28 21.7 30.63 21.88 30.73 22.05L30.85 22.24L31.95 21.73L31.84 21.5C31.53 20.88 31.02 20.66 30.59 20.56V19.98H29.31V20.55C28.43 20.72 27.89 21.27 27.89 22.02C27.89 23.32 29.12 23.46 29.85 23.54C30.24 23.59 30.71 23.69 30.71 23.91C30.71 24.31 30.03 24.33 29.9 24.33C29.46 24.33 29.02 24.11 28.91 23.84L28.81 23.61L27.62 24.11L27.72 24.34C27.99 24.97 28.55 25.38 29.31 25.51V26.12H30.57V26.13Z" fill="white"/>
</svg>
